<svg xmlns="http://www.w3.org/2000/svg" fill="#fff" data-name="Layer 1" viewBox="0 0 68.7 101.375" x="0px" y="0px"><path d="M38.35,90.9a.5.5,0,0,1-.43-.24l-3.68-6.05-6.82-1.06a.5.5,0,0,1-.31-.81l4.46-5.38-1-6.13a.53.53,0,0,1,0-.08v-.6a.5.5,0,0,1,.69-.46L38,72.89l.74-.43,5.11-2.81a.5.5,0,0,1,.74.49l-.77,7.15,4.87,4.58a.5.5,0,0,1-.23.85l-6.52,1.5L38.8,90.62a.5.5,0,0,1-.43.28Zm-9.9-8.21,6.18,1a.5.5,0,0,1,.35.23l3.33,5.47,2.85-5.78a.5.5,0,0,1,.34-.27L47.33,82,43,77.86a.5.5,0,0,1-.15-.42L43.5,71l-5.2,2.88a.51.51,0,0,1-.44,0l-6.23-2.6,1,6.11a.5.5,0,0,1-.11.4Zm53.75-10a.5.5,0,0,1-.23-.05l-6.3-3.2-6.44,2.61a.5.5,0,0,1-.68-.54l1.07-7-4-4.52a91.55,91.55,0,0,0-13.3-3.24c-10-1.74-18.19-1.75-24.23,0a.5.5,0,1,1-.28-1C34,54,42.34,54,52.54,55.81a95.18,95.18,0,0,1,12.6,3v0a.5.5,0,0,1,.39-.28l3.52-.45-1.48-.76a80.29,80.29,0,0,0-8.78-3.37A80,80,0,0,0,29,50.55a.5.5,0,1,1-.07-1A80.94,80.94,0,0,1,59.1,53,81.38,81.38,0,0,1,68,56.4c1,.48,1.84.94,2.64,1.38l2.12-.29.21-.44a40,40,0,0,0-3.82-2.47,66.86,66.86,0,0,0-8.45-4.38c-2.29-1-4.57-1.86-6.8-2.58-8.82-2.47-16.49-3.38-22.79-2.68A.5.5,0,0,1,31,44c6.43-.71,14.23.2,23.19,2.72,2.28.74,4.6,1.62,6.92,2.62a67.9,67.9,0,0,1,8.56,4.43,41.23,41.23,0,0,1,3.78,2.44l2.62-4.52a.57.57,0,0,1,.45-.25.5.5,0,0,1,.43.28L80,58.16l6.51,1.35a.5.5,0,0,1,.25.85L82.07,65l.63,7.17a.5.5,0,0,1-.5.54Zm-6.5-4.3a.51.51,0,0,1,.23.05l5.7,2.89-.57-6.5a.5.5,0,0,1,.15-.4l4.23-4.14L79.6,59.09a.5.5,0,0,1-.35-.27L76.46,53,74,57.13l-.49,1a.5.5,0,0,1-.38.28l-2.54.35L69.24,59l-2.81.36,4.1,4.67a.5.5,0,0,1,.12.4l-1,6.33,5.83-2.37A.49.49,0,0,1,75.7,68.4Zm-4.9-27h-.07a.5.5,0,0,1-.39-.31L67.82,34.6l-5.83-2-.08,0-.55-.3a.5.5,0,0,1-.07-.83L67,26.86,67,26V20.15a.5.5,0,0,1,.79-.41l5.89,4.16L80,21.82a.5.5,0,0,1,.64.61l-1.83,6.37,4.07,5.91a.5.5,0,0,1-.39.78l-7.07.34-4.26,5.42A.5.5,0,0,1,70.8,41.45ZM62.53,31.7l5.84,2a.5.5,0,0,1,.3.29L71,39.95,74.81,35a.5.5,0,0,1,.37-.19l6.4-.31-3.69-5.36a.5.5,0,0,1-.07-.42l1.64-5.69-5.7,1.86a.5.5,0,0,1-.44-.07L68,21.11l0,6a.5.5,0,0,1-.19.42Zm-32.78-.5a.5.5,0,0,1-.42-.23L25.5,25l-6.82-1a.5.5,0,0,1-.32-.81l4.41-5.47-1.16-6.07a.51.51,0,0,1,0-.09V11a.5.5,0,0,1,.68-.47l4.65,1.8,2.12.9.73-.46L34.9,9.87a.5.5,0,0,1,.52,0,.5.5,0,0,1,.23.47L35,17.55l5,4.43a.5.5,0,0,1-.21.86L33.3,24.43l-3.1,6.49a.5.5,0,0,1-.42.28Zm-10.06-8,6.18.88a.5.5,0,0,1,.35.23l3.46,5.4,2.81-5.89a.5.5,0,0,1,.33-.27l5.73-1.42-4.44-4A.5.5,0,0,1,34,17.7l.61-6.49L30.3,13.63l-.93.59a.5.5,0,0,1-.46,0l-2.35-1-3.92-1.52,1.15,6.06a.5.5,0,0,1-.1.41Z" transform="translate(-18.25 -9.8)"/></svg>