<svg xmlns="http://www.w3.org/2000/svg" fill="#939393" data-name="Layer 1" viewBox="0 0 100 125" x="0px" y="0px"><rect x="42.34" y="22.48" width="15.48" height="1"/><rect x="60.21" y="22.48" width="6.55" height="1"/><rect x="69.14" y="22.48" width="4.76" height="1"/><rect x="54.85" y="36.77" width="15.48" height="1"/><rect x="72.71" y="36.77" width="6.55" height="1"/><rect x="81.64" y="36.77" width="4.76" height="1"/><rect x="28.05" y="52.85" width="38.71" height="1"/><rect x="69.14" y="52.85" width="17.27" height="1"/><rect x="88.79" y="52.85" width="4.76" height="1"/><rect x="38.77" y="68.93" width="15.48" height="1"/><rect x="56.63" y="68.93" width="6.55" height="1"/><rect x="65.57" y="68.93" width="4.76" height="1"/><rect x="51.28" y="83.22" width="6.55" height="1"/><rect x="60.21" y="83.22" width="4.76" height="1"/><path d="M26.83,30.35,31,36.27l2.15-6.92,6.92-2.15L34.17,23l.09-7.24-5.8,4.33-6.86-2.33,2.33,6.86-4.33,5.8Zm-3.64-11,5.44,1.84,4.6-3.43-.07,5.74,4.69,3.31-5.48,1.71L30.66,34l-3.32-4.69-5.74.07L25,24.82Z"/><path d="M21,53.55l.09-7.24-5.8,4.33L8.45,48.31l2.33,6.86L6.45,61l7.24-.09,4.18,5.91L20,59.88l6.92-2.15Zm-1.8,5.53-1.7,5.48L14.2,59.88,8.46,60l3.43-4.6L10,49.91l5.44,1.84,4.6-3.43L20,54.06l4.69,3.32Z"/><path d="M34.7,65.07l-5.2,3.88-6.15-2.08L25.44,73l-3.88,5.2L28,78.13l3.75,5.3,1.93-6.2,6.2-1.93-5.3-3.75Zm3,9.89-4.77,1.48L31.44,81.2l-2.88-4.07-5,.06,3-4L25,68.46l4.73,1.6,4-3-.06,5Z"/></svg>